<svg width="500" height="500">
  <line stroke="#000000" stroke-dasharray="0" stroke-width="2" x1="100" x2="110" y1="396" y2="386" />
  <line stroke="#000000" stroke-dasharray="0" stroke-width="2" x1="110" x2="100" y1="386" y2="388" />
  <line stroke="#000000" stroke-dasharray="0" stroke-width="2" x1="100" x2="100" y1="388" y2="396" />
  <line stroke="#000000" stroke-dasharray="0" stroke-width="2" x1="142" x2="121" y1="379" y2="396" />
  <line stroke="#000000" stroke-dasharray="0" stroke-width="2" x1="121" x2="142" y1="396" y2="396" />
  <line stroke="#000000" stroke-dasharray="0" stroke-width="2" x1="142" x2="142" y1="396" y2="379" />
  <line stroke="#000000" stroke-dasharray="0" stroke-width="2" x1="236" x2="267" y1="165" y2="137" />
  <line stroke="#000000" stroke-dasharray="0" stroke-width="2" x1="267" x2="231" y1="137" y2="134" />
  <line stroke="#000000" stroke-dasharray="0" stroke-width="2" x1="231" x2="236" y1="134" y2="165" />
  <line stroke="#000000" stroke-dasharray="0" stroke-width="2" x1="208" x2="237" y1="302" y2="302" />
  <line stroke="#000000" stroke-dasharray="0" stroke-width="2" x1="237" x2="237" y1="302" y2="285" />
  <line stroke="#000000" stroke-dasharray="0" stroke-width="2" x1="237" x2="208" y1="285" y2="302" />
  <line stroke="#000000" stroke-dasharray="0" stroke-width="2" x1="185" x2="185" y1="396" y2="388" />
  <line stroke="#000000" stroke-dasharray="0" stroke-width="2" x1="185" x2="167" y1="388" y2="385" />
  <line stroke="#000000" stroke-dasharray="0" stroke-width="2" x1="167" x2="185" y1="385" y2="396" />
  <line stroke="#000000" stroke-dasharray="0" stroke-width="2" x1="310" x2="303" y1="385" y2="396" />
  <line stroke="#000000" stroke-dasharray="0" stroke-width="2" x1="303" x2="317" y1="396" y2="396" />
  <line stroke="#000000" stroke-dasharray="0" stroke-width="2" x1="317" x2="310" y1="396" y2="385" />
  <line stroke="#000000" stroke-dasharray="0" stroke-width="2" x1="218" x2="224" y1="165" y2="195" />
  <line stroke="#000000" stroke-dasharray="0" stroke-width="2" x1="224" x2="236" y1="195" y2="165" />
  <line stroke="#000000" stroke-dasharray="0" stroke-width="2" x1="236" x2="218" y1="165" y2="165" />
  <line stroke="#000000" stroke-dasharray="0" stroke-width="2" x1="159" x2="156" y1="380" y2="369" />
  <line stroke="#000000" stroke-dasharray="0" stroke-width="2" x1="156" x2="142" y1="369" y2="379" />
  <line stroke="#000000" stroke-dasharray="0" stroke-width="2" x1="142" x2="159" y1="379" y2="380" />
  <line stroke="#000000" stroke-dasharray="0" stroke-width="2" x1="142" x2="167" y1="396" y2="385" />
  <line stroke="#000000" stroke-dasharray="0" stroke-width="2" x1="167" x2="159" y1="385" y2="380" />
  <line stroke="#000000" stroke-dasharray="0" stroke-width="2" x1="159" x2="142" y1="380" y2="396" />
  <line stroke="#000000" stroke-dasharray="0" stroke-width="2" x1="142" x2="185" y1="396" y2="396" />
  <line stroke="#000000" stroke-dasharray="0" stroke-width="2" x1="187" x2="180" y1="285" y2="302" />
  <line stroke="#000000" stroke-dasharray="0" stroke-width="2" x1="180" x2="208" y1="302" y2="302" />
  <line stroke="#000000" stroke-dasharray="0" stroke-width="2" x1="208" x2="187" y1="302" y2="285" />
  <line stroke="#000000" stroke-dasharray="0" stroke-width="2" x1="122" x2="110" y1="378" y2="386" />
  <line stroke="#000000" stroke-dasharray="0" stroke-width="2" x1="110" x2="121" y1="386" y2="396" />
  <line stroke="#000000" stroke-dasharray="0" stroke-width="2" x1="121" x2="122" y1="396" y2="378" />
  <line stroke="#000000" stroke-dasharray="0" stroke-width="2" x1="142" x2="138" y1="379" y2="351" />
  <line stroke="#000000" stroke-dasharray="0" stroke-width="2" x1="138" x2="122" y1="351" y2="378" />
  <line stroke="#000000" stroke-dasharray="0" stroke-width="2" x1="122" x2="142" y1="378" y2="379" />
  <line stroke="#000000" stroke-dasharray="0" stroke-width="2" x1="138" x2="156" y1="351" y2="369" />
  <line stroke="#000000" stroke-dasharray="0" stroke-width="2" x1="156" x2="159" y1="369" y2="353" />
  <line stroke="#000000" stroke-dasharray="0" stroke-width="2" x1="159" x2="138" y1="353" y2="351" />
  <line stroke="#000000" stroke-dasharray="0" stroke-width="2" x1="159" x2="152" y1="353" y2="320" />
  <line stroke="#000000" stroke-dasharray="0" stroke-width="2" x1="152" x2="138" y1="320" y2="351" />
  <line stroke="#000000" stroke-dasharray="0" stroke-width="2" x1="187" x2="165" y1="285" y2="289" />
  <line stroke="#000000" stroke-dasharray="0" stroke-width="2" x1="165" x2="180" y1="289" y2="302" />
  <line stroke="#000000" stroke-dasharray="0" stroke-width="2" x1="281" x2="262" y1="170" y2="225" />
  <line stroke="#000000" stroke-dasharray="0" stroke-width="2" x1="262" x2="311" y1="225" y2="236" />
  <line stroke="#000000" stroke-dasharray="0" stroke-width="2" x1="311" x2="281" y1="236" y2="170" />
  <line stroke="#000000" stroke-dasharray="0" stroke-width="2" x1="310" x2="340" y1="342" y2="303" />
  <line stroke="#000000" stroke-dasharray="0" stroke-width="2" x1="340" x2="293" y1="303" y2="302" />
  <line stroke="#000000" stroke-dasharray="0" stroke-width="2" x1="293" x2="310" y1="302" y2="342" />
  <line stroke="#000000" stroke-dasharray="0" stroke-width="2" x1="199" x2="165" y1="255" y2="289" />
  <line stroke="#000000" stroke-dasharray="0" stroke-width="2" x1="187" x2="199" y1="285" y2="255" />
  <line stroke="#000000" stroke-dasharray="0" stroke-width="2" x1="265" x2="293" y1="302" y2="302" />
  <line stroke="#000000" stroke-dasharray="0" stroke-width="2" x1="293" x2="287" y1="302" y2="285" />
  <line stroke="#000000" stroke-dasharray="0" stroke-width="2" x1="287" x2="265" y1="285" y2="302" />
  <line stroke="#000000" stroke-dasharray="0" stroke-width="2" x1="159" x2="180" y1="353" y2="302" />
  <line stroke="#000000" stroke-dasharray="0" stroke-width="2" x1="180" x2="152" y1="302" y2="320" />
  <line stroke="#000000" stroke-dasharray="0" stroke-width="2" x1="344" x2="334" y1="350" y2="381" />
  <line stroke="#000000" stroke-dasharray="0" stroke-width="2" x1="334" x2="370" y1="381" y2="369" />
  <line stroke="#000000" stroke-dasharray="0" stroke-width="2" x1="370" x2="344" y1="369" y2="350" />
  <line stroke="#000000" stroke-dasharray="0" stroke-width="2" x1="100" x2="121" y1="396" y2="396" />
  <line stroke="#000000" stroke-dasharray="0" stroke-width="2" x1="224" x2="191" y1="195" y2="227" />
  <line stroke="#000000" stroke-dasharray="0" stroke-width="2" x1="191" x2="212" y1="227" y2="225" />
  <line stroke="#000000" stroke-dasharray="0" stroke-width="2" x1="212" x2="224" y1="225" y2="195" />
  <line stroke="#000000" stroke-dasharray="0" stroke-width="2" x1="303" x2="289" y1="396" y2="388" />
  <line stroke="#000000" stroke-dasharray="0" stroke-width="2" x1="289" x2="289" y1="388" y2="396" />
  <line stroke="#000000" stroke-dasharray="0" stroke-width="2" x1="289" x2="303" y1="396" y2="396" />
  <line stroke="#000000" stroke-dasharray="0" stroke-width="2" x1="372" x2="400" y1="396" y2="396" />
  <line stroke="#000000" stroke-dasharray="0" stroke-width="2" x1="400" x2="387" y1="396" y2="386" />
  <line stroke="#000000" stroke-dasharray="0" stroke-width="2" x1="387" x2="372" y1="386" y2="396" />
  <line stroke="#000000" stroke-dasharray="0" stroke-width="2" x1="191" x2="199" y1="227" y2="255" />
  <line stroke="#000000" stroke-dasharray="0" stroke-width="2" x1="199" x2="212" y1="255" y2="225" />
  <line stroke="#000000" stroke-dasharray="0" stroke-width="2" x1="281" x2="236" y1="170" y2="165" />
  <line stroke="#000000" stroke-dasharray="0" stroke-width="2" x1="236" x2="262" y1="165" y2="225" />
  <line stroke="#000000" stroke-dasharray="0" stroke-width="2" x1="400" x2="400" y1="396" y2="388" />
  <line stroke="#000000" stroke-dasharray="0" stroke-width="2" x1="400" x2="387" y1="388" y2="386" />
  <line stroke="#000000" stroke-dasharray="0" stroke-width="2" x1="326" x2="311" y1="270" y2="236" />
  <line stroke="#000000" stroke-dasharray="0" stroke-width="2" x1="311" x2="287" y1="236" y2="285" />
  <line stroke="#000000" stroke-dasharray="0" stroke-width="2" x1="287" x2="326" y1="285" y2="270" />
  <line stroke="#000000" stroke-dasharray="0" stroke-width="2" x1="370" x2="344" y1="369" y2="396" />
  <line stroke="#000000" stroke-dasharray="0" stroke-width="2" x1="344" x2="372" y1="396" y2="396" />
  <line stroke="#000000" stroke-dasharray="0" stroke-width="2" x1="372" x2="370" y1="396" y2="369" />
  <line stroke="#000000" stroke-dasharray="0" stroke-width="2" x1="317" x2="316" y1="396" y2="381" />
  <line stroke="#000000" stroke-dasharray="0" stroke-width="2" x1="316" x2="310" y1="381" y2="385" />
  <line stroke="#000000" stroke-dasharray="0" stroke-width="2" x1="378" x2="372" y1="380" y2="396" />
  <line stroke="#000000" stroke-dasharray="0" stroke-width="2" x1="387" x2="378" y1="386" y2="380" />
  <line stroke="#000000" stroke-dasharray="0" stroke-width="2" x1="378" x2="370" y1="380" y2="369" />
  <line stroke="#000000" stroke-dasharray="0" stroke-width="2" x1="293" x2="326" y1="302" y2="270" />
  <line stroke="#000000" stroke-dasharray="0" stroke-width="2" x1="344" x2="334" y1="396" y2="381" />
  <line stroke="#000000" stroke-dasharray="0" stroke-width="2" x1="334" x2="317" y1="381" y2="396" />
  <line stroke="#000000" stroke-dasharray="0" stroke-width="2" x1="317" x2="344" y1="396" y2="396" />
  <line stroke="#000000" stroke-dasharray="0" stroke-width="2" x1="281" x2="267" y1="170" y2="137" />
  <line stroke="#000000" stroke-dasharray="0" stroke-width="2" x1="237" x2="187" y1="285" y2="285" />
  <line stroke="#000000" stroke-dasharray="0" stroke-width="2" x1="370" x2="340" y1="369" y2="303" />
  <line stroke="#000000" stroke-dasharray="0" stroke-width="2" x1="340" x2="344" y1="303" y2="350" />
  <line stroke="#000000" stroke-dasharray="0" stroke-width="2" x1="231" x2="218" y1="134" y2="165" />
  <line stroke="#000000" stroke-dasharray="0" stroke-width="2" x1="340" x2="326" y1="303" y2="270" />
  <line stroke="#000000" stroke-dasharray="0" stroke-width="2" x1="262" x2="287" y1="225" y2="285" />
  <line stroke="#000000" stroke-dasharray="0" stroke-width="2" x1="334" x2="316" y1="381" y2="381" />
  <line stroke="#000000" stroke-dasharray="0" stroke-width="2" x1="334" x2="319" y1="381" y2="372" />
  <line stroke="#000000" stroke-dasharray="0" stroke-width="2" x1="319" x2="316" y1="372" y2="381" />
  <line stroke="#000000" stroke-dasharray="0" stroke-width="2" x1="344" x2="310" y1="350" y2="342" />
  <line stroke="#000000" stroke-dasharray="0" stroke-width="2" x1="310" x2="319" y1="342" y2="372" />
  <line stroke="#000000" stroke-dasharray="0" stroke-width="2" x1="319" x2="344" y1="372" y2="350" />
  <line stroke="#000000" stroke-dasharray="0" stroke-width="2" x1="310" x2="289" y1="385" y2="388" />
  <line stroke="#000000" stroke-dasharray="0" stroke-width="2" x1="248" x2="244" y1="123" y2="103" />
  <line stroke="#000000" stroke-dasharray="0" stroke-width="2" x1="244" x2="231" y1="103" y2="134" />
  <line stroke="#000000" stroke-dasharray="0" stroke-width="2" x1="231" x2="248" y1="134" y2="123" />
  <line stroke="#000000" stroke-dasharray="0" stroke-width="2" x1="267" x2="248" y1="137" y2="123" />
  <line stroke="#000000" stroke-dasharray="0" stroke-width="2" x1="237" x2="265" y1="285" y2="302" />
  <line stroke="#000000" stroke-dasharray="0" stroke-width="2" x1="287" x2="237" y1="285" y2="285" />
  <line stroke="#000000" stroke-dasharray="0" stroke-width="2" x1="237" x2="265" y1="302" y2="302" />
  <line stroke="#000000" stroke-dasharray="0" stroke-width="2" x1="218" x2="191" y1="165" y2="227" />
  <line stroke="#000000" stroke-dasharray="0" stroke-width="2" x1="165" x2="152" y1="289" y2="320" />
  <line stroke="#000000" stroke-dasharray="0" stroke-width="2" x1="191" x2="165" y1="227" y2="289" />
  <line stroke="#000000" stroke-dasharray="0" stroke-width="2" x1="252" x2="244" y1="103" y2="103" />
  <line stroke="#000000" stroke-dasharray="0" stroke-width="2" x1="248" x2="252" y1="123" y2="103" />
  <line stroke="#000000" stroke-dasharray="0" stroke-width="2" x1="267" x2="252" y1="137" y2="103" />
  <circle cx="100" cy="388" fill="#000000" r="1" stoke-width="1" stroke="#000000" />
  <circle cx="110" cy="386" fill="#000000" r="1" stoke-width="1" stroke="#000000" />
  <circle cx="122" cy="378" fill="#000000" r="1" stoke-width="1" stroke="#000000" />
  <circle cx="138" cy="351" fill="#000000" r="1" stoke-width="1" stroke="#000000" />
  <circle cx="244" cy="103" fill="#000000" r="1" stoke-width="1" stroke="#000000" />
  <circle cx="252" cy="103" fill="#000000" r="1" stoke-width="1" stroke="#000000" />
  <circle cx="370" cy="369" fill="#000000" r="1" stoke-width="1" stroke="#000000" />
  <circle cx="378" cy="380" fill="#000000" r="1" stoke-width="1" stroke="#000000" />
  <circle cx="387" cy="386" fill="#000000" r="1" stoke-width="1" stroke="#000000" />
  <circle cx="400" cy="388" fill="#000000" r="1" stoke-width="1" stroke="#000000" />
  <circle cx="400" cy="396" fill="#000000" r="1" stoke-width="1" stroke="#000000" />
  <circle cx="289" cy="396" fill="#000000" r="1" stoke-width="1" stroke="#000000" />
  <circle cx="289" cy="388" fill="#000000" r="1" stoke-width="1" stroke="#000000" />
  <circle cx="310" cy="385" fill="#000000" r="1" stoke-width="1" stroke="#000000" />
  <circle cx="316" cy="381" fill="#000000" r="1" stoke-width="1" stroke="#000000" />
  <circle cx="319" cy="372" fill="#000000" r="1" stoke-width="1" stroke="#000000" />
  <circle cx="310" cy="342" fill="#000000" r="1" stoke-width="1" stroke="#000000" />
  <circle cx="293" cy="302" fill="#000000" r="1" stoke-width="1" stroke="#000000" />
  <circle cx="180" cy="302" fill="#000000" r="1" stoke-width="1" stroke="#000000" />
  <circle cx="159" cy="353" fill="#000000" r="1" stoke-width="1" stroke="#000000" />
  <circle cx="156" cy="369" fill="#000000" r="1" stoke-width="1" stroke="#000000" />
  <circle cx="159" cy="380" fill="#000000" r="1" stoke-width="1" stroke="#000000" />
  <circle cx="167" cy="385" fill="#000000" r="1" stoke-width="1" stroke="#000000" />
  <circle cx="185" cy="388" fill="#000000" r="1" stoke-width="1" stroke="#000000" />
  <circle cx="185" cy="396" fill="#000000" r="1" stoke-width="1" stroke="#000000" />
  <circle cx="187" cy="285" fill="#000000" r="1" stoke-width="1" stroke="#000000" />
  <circle cx="287" cy="285" fill="#000000" r="1" stoke-width="1" stroke="#000000" />
  <circle cx="236" cy="165" fill="#000000" r="1" stoke-width="1" stroke="#000000" />
  <circle cx="100" cy="396" fill="#000000" r="1" stoke-width="1" stroke="#000000" />
  <circle cx="191" cy="227" fill="#000000" r="1" stoke-width="1" stroke="#000000" />
  <circle cx="311" cy="236" fill="#000000" r="1" stoke-width="1" stroke="#000000" />
  <circle cx="344" cy="396" fill="#000000" r="1" stoke-width="1" stroke="#000000" />
  <circle cx="142" cy="396" fill="#000000" r="1" stoke-width="1" stroke="#000000" />
  <circle cx="212" cy="225" fill="#000000" r="1" stoke-width="1" stroke="#000000" />
  <circle cx="165" cy="289" fill="#000000" r="1" stoke-width="1" stroke="#000000" />
  <circle cx="218" cy="165" fill="#000000" r="1" stoke-width="1" stroke="#000000" />
  <circle cx="317" cy="396" fill="#000000" r="1" stoke-width="1" stroke="#000000" />
  <circle cx="303" cy="396" fill="#000000" r="1" stoke-width="1" stroke="#000000" />
  <circle cx="281" cy="170" fill="#000000" r="1" stoke-width="1" stroke="#000000" />
  <circle cx="231" cy="134" fill="#000000" r="1" stoke-width="1" stroke="#000000" />
  <circle cx="372" cy="396" fill="#000000" r="1" stoke-width="1" stroke="#000000" />
  <circle cx="334" cy="381" fill="#000000" r="1" stoke-width="1" stroke="#000000" />
  <circle cx="142" cy="379" fill="#000000" r="1" stoke-width="1" stroke="#000000" />
  <circle cx="121" cy="396" fill="#000000" r="1" stoke-width="1" stroke="#000000" />
  <circle cx="340" cy="303" fill="#000000" r="1" stoke-width="1" stroke="#000000" />
  <circle cx="237" cy="302" fill="#000000" r="1" stoke-width="1" stroke="#000000" />
  <circle cx="237" cy="285" fill="#000000" r="1" stoke-width="1" stroke="#000000" />
  <circle cx="344" cy="350" fill="#000000" r="1" stoke-width="1" stroke="#000000" />
  <circle cx="326" cy="270" fill="#000000" r="1" stoke-width="1" stroke="#000000" />
  <circle cx="265" cy="302" fill="#000000" r="1" stoke-width="1" stroke="#000000" />
  <circle cx="208" cy="302" fill="#000000" r="1" stoke-width="1" stroke="#000000" />
  <circle cx="224" cy="195" fill="#000000" r="1" stoke-width="1" stroke="#000000" />
  <circle cx="152" cy="320" fill="#000000" r="1" stoke-width="1" stroke="#000000" />
  <circle cx="199" cy="255" fill="#000000" r="1" stoke-width="1" stroke="#000000" />
  <circle cx="267" cy="137" fill="#000000" r="1" stoke-width="1" stroke="#000000" />
  <circle cx="248" cy="123" fill="#000000" r="1" stoke-width="1" stroke="#000000" />
  <circle cx="262" cy="225" fill="#000000" r="1" stoke-width="1" stroke="#000000" />
</svg>