<svg width="1000" height="1000">
  <rect fill="white" height="1000" width="1000" x="0" y="0" />
  <line stroke="black" stroke-dasharray="0" stroke-width="4" x1="100" x2="100" y1="100" y2="100" />
  <line stroke="black" stroke-dasharray="0" stroke-width="4" x1="100" x2="100" y1="100" y2="100" />
  <line stroke="black" stroke-dasharray="0" stroke-width="4" x1="100" x2="100" y1="100" y2="100" />
  <line stroke="black" stroke-dasharray="0" stroke-width="4" x1="888" x2="900" y1="675" y2="900" />
  <line stroke="black" stroke-dasharray="0" stroke-width="4" x1="900" x2="608" y1="900" y2="981" />
  <line stroke="black" stroke-dasharray="0" stroke-width="4" x1="608" x2="888" y1="981" y2="675" />
  <line stroke="black" stroke-dasharray="0" stroke-width="4" x1="888" x2="987" y1="675" y2="623" />
  <line stroke="black" stroke-dasharray="0" stroke-width="4" x1="987" x2="900" y1="623" y2="900" />
  <line stroke="black" stroke-dasharray="0" stroke-width="4" x1="227" x2="262" y1="423" y2="129" />
  <line stroke="black" stroke-dasharray="0" stroke-width="4" x1="262" x2="900" y1="129" y2="100" />
  <line stroke="black" stroke-dasharray="0" stroke-width="4" x1="900" x2="227" y1="100" y2="423" />
  <line stroke="black" stroke-dasharray="0" stroke-width="4" x1="125" x2="262" y1="177" y2="129" />
  <line stroke="black" stroke-dasharray="0" stroke-width="4" x1="227" x2="125" y1="423" y2="177" />
  <line stroke="black" stroke-dasharray="0" stroke-width="4" x1="262" x2="100" y1="129" y2="100" />
  <line stroke="black" stroke-dasharray="0" stroke-width="4" x1="100" x2="900" y1="100" y2="100" />
  <line stroke="black" stroke-dasharray="0" stroke-width="4" x1="888" x2="900" y1="675" y2="100" />
  <line stroke="black" stroke-dasharray="0" stroke-width="4" x1="900" x2="987" y1="100" y2="623" />
  <line stroke="black" stroke-dasharray="0" stroke-width="4" x1="486" x2="100" y1="808" y2="900" />
  <line stroke="black" stroke-dasharray="0" stroke-width="4" x1="100" x2="151" y1="900" y2="696" />
  <line stroke="black" stroke-dasharray="0" stroke-width="4" x1="151" x2="486" y1="696" y2="808" />
  <line stroke="black" stroke-dasharray="0" stroke-width="4" x1="167" x2="486" y1="530" y2="808" />
  <line stroke="black" stroke-dasharray="0" stroke-width="4" x1="151" x2="167" y1="696" y2="530" />
  <line stroke="black" stroke-dasharray="0" stroke-width="4" x1="43" x2="151" y1="313" y2="696" />
  <line stroke="black" stroke-dasharray="0" stroke-width="4" x1="100" x2="43" y1="900" y2="313" />
  <line stroke="black" stroke-dasharray="0" stroke-width="4" x1="43" x2="125" y1="313" y2="177" />
  <line stroke="black" stroke-dasharray="0" stroke-width="4" x1="227" x2="43" y1="423" y2="313" />
  <line stroke="black" stroke-dasharray="0" stroke-width="4" x1="486" x2="888" y1="808" y2="675" />
  <line stroke="black" stroke-dasharray="0" stroke-width="4" x1="608" x2="486" y1="981" y2="808" />
  <line stroke="black" stroke-dasharray="0" stroke-width="4" x1="888" x2="227" y1="675" y2="423" />
  <line stroke="black" stroke-dasharray="0" stroke-width="4" x1="125" x2="100" y1="177" y2="100" />
  <line stroke="black" stroke-dasharray="0" stroke-width="4" x1="167" x2="43" y1="530" y2="313" />
  <line stroke="black" stroke-dasharray="0" stroke-width="4" x1="227" x2="167" y1="423" y2="530" />
  <line stroke="black" stroke-dasharray="0" stroke-width="4" x1="486" x2="227" y1="808" y2="423" />
  <line stroke="black" stroke-dasharray="0" stroke-width="4" x1="608" x2="100" y1="981" y2="900" />
  <line stroke="black" stroke-dasharray="0" stroke-width="4" x1="43" x2="100" y1="313" y2="100" />
  <text fill="#000000" text-anchor="middle" x="100" y="100" >0</text>  <text fill="#000000" text-anchor="middle" x="798" y="852" >1</text>  <text fill="#000000" text-anchor="middle" x="925" y="732" >2</text>  <text fill="#000000" text-anchor="middle" x="463" y="217" >3</text>  <text fill="#000000" text-anchor="middle" x="204" y="243" >4</text>  <text fill="#000000" text-anchor="middle" x="420" y="109" >5</text>  <text fill="#000000" text-anchor="middle" x="925" y="466" >6</text>  <text fill="#000000" text-anchor="middle" x="245" y="801" >7</text>  <text fill="#000000" text-anchor="middle" x="268" y="678" >8</text>  <text fill="#000000" text-anchor="middle" x="98" y="636" >9</text>  <text fill="#000000" text-anchor="middle" x="131" y="304" >10</text>  <text fill="#000000" text-anchor="middle" x="660" y="821" >11</text>  <text fill="#000000" text-anchor="middle" x="671" y="399" >12</text>  <text fill="#000000" text-anchor="middle" x="162" y="135" >13</text>  <text fill="#000000" text-anchor="middle" x="145" y="422" >14</text>  <text fill="#000000" text-anchor="middle" x="533" y="635" >15</text>  <text fill="#000000" text-anchor="middle" x="398" y="896" >16</text>  <text fill="#000000" text-anchor="middle" x="89" y="196" >17</text>  <text fill="#000000" text-anchor="middle" x="293" y="587" >18</text>  <text fill="#000000" text-anchor="middle" x="120" y="513" >19</text>  <circle cx="100" cy="100" fill="black" r="2" stoke-width="1" stroke="black" />
  <circle cx="900" cy="100" fill="black" r="2" stoke-width="1" stroke="black" />
  <circle cx="100" cy="900" fill="black" r="2" stoke-width="1" stroke="black" />
  <circle cx="900" cy="900" fill="black" r="2" stoke-width="1" stroke="black" />
  <circle cx="608" cy="981" fill="black" r="2" stoke-width="1" stroke="black" />
  <circle cx="262" cy="129" fill="black" r="2" stoke-width="1" stroke="black" />
  <circle cx="227" cy="423" fill="black" r="2" stoke-width="1" stroke="black" />
  <circle cx="987" cy="623" fill="black" r="2" stoke-width="1" stroke="black" />
  <circle cx="151" cy="696" fill="black" r="2" stoke-width="1" stroke="black" />
  <circle cx="888" cy="675" fill="black" r="2" stoke-width="1" stroke="black" />
  <circle cx="125" cy="177" fill="black" r="2" stoke-width="1" stroke="black" />
  <circle cx="486" cy="808" fill="black" r="2" stoke-width="1" stroke="black" />
  <circle cx="43" cy="313" fill="black" r="2" stoke-width="1" stroke="black" />
  <circle cx="167" cy="530" fill="black" r="2" stoke-width="1" stroke="black" />
  <line stroke="blue" stroke-dasharray="4" stroke-width="10" x1="100" x2="900" y1="100" y2="100" />
  <line stroke="blue" stroke-dasharray="4" stroke-width="10" x1="100" x2="900" y1="900" y2="900" />
  <line stroke="blue" stroke-dasharray="4" stroke-width="10" x1="100" x2="900" y1="100" y2="900" />
</svg>