<svg width="1000" height="1000">
  <rect fill="white" height="1000" stroke="white" stroke-width="1" width="1000" x="0" y="0" />
  <polyline fill="none" points="50,950 68,894 86,844 105,797 123,755 141,716 160,682 178,650 196,622 215,597 233,575 252,556 270,539 288,525 307,513 325,503 343,494 362,488 380,482 398,479 417,476 435,474 454,473 472,472 490,472 509,472 527,472 545,472 564,471 582,470 601,468 619,465 637,461 656,456 674,450 692,441 711,431 729,419 747,405 766,388 784,369 803,347 821,322 839,294 858,262 876,227 894,189 913,147 931,100 950,50 " stroke="#2196F3" stroke-dasharray="0" stroke-width="1" />
  <circle cx="50" cy="950" fill="#2196F3" r="0" stoke-width="1" stroke="#2196F3" />
  <circle cx="68" cy="894" fill="#2196F3" r="0" stoke-width="1" stroke="#2196F3" />
  <circle cx="86" cy="844" fill="#2196F3" r="0" stoke-width="1" stroke="#2196F3" />
  <circle cx="105" cy="797" fill="#2196F3" r="0" stoke-width="1" stroke="#2196F3" />
  <circle cx="123" cy="755" fill="#2196F3" r="0" stoke-width="1" stroke="#2196F3" />
  <circle cx="141" cy="716" fill="#2196F3" r="0" stoke-width="1" stroke="#2196F3" />
  <circle cx="160" cy="682" fill="#2196F3" r="0" stoke-width="1" stroke="#2196F3" />
  <circle cx="178" cy="650" fill="#2196F3" r="0" stoke-width="1" stroke="#2196F3" />
  <circle cx="196" cy="622" fill="#2196F3" r="0" stoke-width="1" stroke="#2196F3" />
  <circle cx="215" cy="597" fill="#2196F3" r="0" stoke-width="1" stroke="#2196F3" />
  <circle cx="233" cy="575" fill="#2196F3" r="0" stoke-width="1" stroke="#2196F3" />
  <circle cx="252" cy="556" fill="#2196F3" r="0" stoke-width="1" stroke="#2196F3" />
  <circle cx="270" cy="539" fill="#2196F3" r="0" stoke-width="1" stroke="#2196F3" />
  <circle cx="288" cy="525" fill="#2196F3" r="0" stoke-width="1" stroke="#2196F3" />
  <circle cx="307" cy="513" fill="#2196F3" r="0" stoke-width="1" stroke="#2196F3" />
  <circle cx="325" cy="503" fill="#2196F3" r="0" stoke-width="1" stroke="#2196F3" />
  <circle cx="343" cy="494" fill="#2196F3" r="0" stoke-width="1" stroke="#2196F3" />
  <circle cx="362" cy="488" fill="#2196F3" r="0" stoke-width="1" stroke="#2196F3" />
  <circle cx="380" cy="482" fill="#2196F3" r="0" stoke-width="1" stroke="#2196F3" />
  <circle cx="398" cy="479" fill="#2196F3" r="0" stoke-width="1" stroke="#2196F3" />
  <circle cx="417" cy="476" fill="#2196F3" r="0" stoke-width="1" stroke="#2196F3" />
  <circle cx="435" cy="474" fill="#2196F3" r="0" stoke-width="1" stroke="#2196F3" />
  <circle cx="454" cy="473" fill="#2196F3" r="0" stoke-width="1" stroke="#2196F3" />
  <circle cx="472" cy="472" fill="#2196F3" r="0" stoke-width="1" stroke="#2196F3" />
  <circle cx="490" cy="472" fill="#2196F3" r="0" stoke-width="1" stroke="#2196F3" />
  <circle cx="509" cy="472" fill="#2196F3" r="0" stoke-width="1" stroke="#2196F3" />
  <circle cx="527" cy="472" fill="#2196F3" r="0" stoke-width="1" stroke="#2196F3" />
  <circle cx="545" cy="472" fill="#2196F3" r="0" stoke-width="1" stroke="#2196F3" />
  <circle cx="564" cy="471" fill="#2196F3" r="0" stoke-width="1" stroke="#2196F3" />
  <circle cx="582" cy="470" fill="#2196F3" r="0" stoke-width="1" stroke="#2196F3" />
  <circle cx="601" cy="468" fill="#2196F3" r="0" stoke-width="1" stroke="#2196F3" />
  <circle cx="619" cy="465" fill="#2196F3" r="0" stoke-width="1" stroke="#2196F3" />
  <circle cx="637" cy="461" fill="#2196F3" r="0" stoke-width="1" stroke="#2196F3" />
  <circle cx="656" cy="456" fill="#2196F3" r="0" stoke-width="1" stroke="#2196F3" />
  <circle cx="674" cy="450" fill="#2196F3" r="0" stoke-width="1" stroke="#2196F3" />
  <circle cx="692" cy="441" fill="#2196F3" r="0" stoke-width="1" stroke="#2196F3" />
  <circle cx="711" cy="431" fill="#2196F3" r="0" stoke-width="1" stroke="#2196F3" />
  <circle cx="729" cy="419" fill="#2196F3" r="0" stoke-width="1" stroke="#2196F3" />
  <circle cx="747" cy="405" fill="#2196F3" r="0" stoke-width="1" stroke="#2196F3" />
  <circle cx="766" cy="388" fill="#2196F3" r="0" stoke-width="1" stroke="#2196F3" />
  <circle cx="784" cy="369" fill="#2196F3" r="0" stoke-width="1" stroke="#2196F3" />
  <circle cx="803" cy="347" fill="#2196F3" r="0" stoke-width="1" stroke="#2196F3" />
  <circle cx="821" cy="322" fill="#2196F3" r="0" stoke-width="1" stroke="#2196F3" />
  <circle cx="839" cy="294" fill="#2196F3" r="0" stoke-width="1" stroke="#2196F3" />
  <circle cx="858" cy="262" fill="#2196F3" r="0" stoke-width="1" stroke="#2196F3" />
  <circle cx="876" cy="227" fill="#2196F3" r="0" stoke-width="1" stroke="#2196F3" />
  <circle cx="894" cy="189" fill="#2196F3" r="0" stoke-width="1" stroke="#2196F3" />
  <circle cx="913" cy="147" fill="#2196F3" r="0" stoke-width="1" stroke="#2196F3" />
  <circle cx="931" cy="100" fill="#2196F3" r="0" stoke-width="1" stroke="#2196F3" />
  <circle cx="950" cy="50" fill="#2196F3" r="0" stoke-width="1" stroke="#2196F3" />
  <polyline fill="none" points="50,185 68,208 86,229 105,250 123,270 141,289 160,306 178,323 196,339 215,355 233,369 252,382 270,395 288,406 307,417 325,426 343,435 362,443 380,450 398,455 417,461 435,465 454,468 472,470 490,472 509,472 527,472 545,470 564,468 582,465 601,461 619,455 637,450 656,443 674,435 692,426 711,417 729,406 747,395 766,382 784,369 803,355 821,339 839,323 858,306 876,289 894,270 913,250 931,229 950,208 " stroke="#4CAF50" stroke-dasharray="10" stroke-width="1" />
  <circle cx="50" cy="185" fill="#4CAF50" r="0" stoke-width="1" stroke="#4CAF50" />
  <circle cx="68" cy="208" fill="#4CAF50" r="0" stoke-width="1" stroke="#4CAF50" />
  <circle cx="86" cy="229" fill="#4CAF50" r="0" stoke-width="1" stroke="#4CAF50" />
  <circle cx="105" cy="250" fill="#4CAF50" r="0" stoke-width="1" stroke="#4CAF50" />
  <circle cx="123" cy="270" fill="#4CAF50" r="0" stoke-width="1" stroke="#4CAF50" />
  <circle cx="141" cy="289" fill="#4CAF50" r="0" stoke-width="1" stroke="#4CAF50" />
  <circle cx="160" cy="306" fill="#4CAF50" r="0" stoke-width="1" stroke="#4CAF50" />
  <circle cx="178" cy="323" fill="#4CAF50" r="0" stoke-width="1" stroke="#4CAF50" />
  <circle cx="196" cy="339" fill="#4CAF50" r="0" stoke-width="1" stroke="#4CAF50" />
  <circle cx="215" cy="355" fill="#4CAF50" r="0" stoke-width="1" stroke="#4CAF50" />
  <circle cx="233" cy="369" fill="#4CAF50" r="0" stoke-width="1" stroke="#4CAF50" />
  <circle cx="252" cy="382" fill="#4CAF50" r="0" stoke-width="1" stroke="#4CAF50" />
  <circle cx="270" cy="395" fill="#4CAF50" r="0" stoke-width="1" stroke="#4CAF50" />
  <circle cx="288" cy="406" fill="#4CAF50" r="0" stoke-width="1" stroke="#4CAF50" />
  <circle cx="307" cy="417" fill="#4CAF50" r="0" stoke-width="1" stroke="#4CAF50" />
  <circle cx="325" cy="426" fill="#4CAF50" r="0" stoke-width="1" stroke="#4CAF50" />
  <circle cx="343" cy="435" fill="#4CAF50" r="0" stoke-width="1" stroke="#4CAF50" />
  <circle cx="362" cy="443" fill="#4CAF50" r="0" stoke-width="1" stroke="#4CAF50" />
  <circle cx="380" cy="450" fill="#4CAF50" r="0" stoke-width="1" stroke="#4CAF50" />
  <circle cx="398" cy="455" fill="#4CAF50" r="0" stoke-width="1" stroke="#4CAF50" />
  <circle cx="417" cy="461" fill="#4CAF50" r="0" stoke-width="1" stroke="#4CAF50" />
  <circle cx="435" cy="465" fill="#4CAF50" r="0" stoke-width="1" stroke="#4CAF50" />
  <circle cx="454" cy="468" fill="#4CAF50" r="0" stoke-width="1" stroke="#4CAF50" />
  <circle cx="472" cy="470" fill="#4CAF50" r="0" stoke-width="1" stroke="#4CAF50" />
  <circle cx="490" cy="472" fill="#4CAF50" r="0" stoke-width="1" stroke="#4CAF50" />
  <circle cx="509" cy="472" fill="#4CAF50" r="0" stoke-width="1" stroke="#4CAF50" />
  <circle cx="527" cy="472" fill="#4CAF50" r="0" stoke-width="1" stroke="#4CAF50" />
  <circle cx="545" cy="470" fill="#4CAF50" r="0" stoke-width="1" stroke="#4CAF50" />
  <circle cx="564" cy="468" fill="#4CAF50" r="0" stoke-width="1" stroke="#4CAF50" />
  <circle cx="582" cy="465" fill="#4CAF50" r="0" stoke-width="1" stroke="#4CAF50" />
  <circle cx="601" cy="461" fill="#4CAF50" r="0" stoke-width="1" stroke="#4CAF50" />
  <circle cx="619" cy="455" fill="#4CAF50" r="0" stoke-width="1" stroke="#4CAF50" />
  <circle cx="637" cy="450" fill="#4CAF50" r="0" stoke-width="1" stroke="#4CAF50" />
  <circle cx="656" cy="443" fill="#4CAF50" r="0" stoke-width="1" stroke="#4CAF50" />
  <circle cx="674" cy="435" fill="#4CAF50" r="0" stoke-width="1" stroke="#4CAF50" />
  <circle cx="692" cy="426" fill="#4CAF50" r="0" stoke-width="1" stroke="#4CAF50" />
  <circle cx="711" cy="417" fill="#4CAF50" r="0" stoke-width="1" stroke="#4CAF50" />
  <circle cx="729" cy="406" fill="#4CAF50" r="0" stoke-width="1" stroke="#4CAF50" />
  <circle cx="747" cy="395" fill="#4CAF50" r="0" stoke-width="1" stroke="#4CAF50" />
  <circle cx="766" cy="382" fill="#4CAF50" r="0" stoke-width="1" stroke="#4CAF50" />
  <circle cx="784" cy="369" fill="#4CAF50" r="0" stoke-width="1" stroke="#4CAF50" />
  <circle cx="803" cy="355" fill="#4CAF50" r="0" stoke-width="1" stroke="#4CAF50" />
  <circle cx="821" cy="339" fill="#4CAF50" r="0" stoke-width="1" stroke="#4CAF50" />
  <circle cx="839" cy="323" fill="#4CAF50" r="0" stoke-width="1" stroke="#4CAF50" />
  <circle cx="858" cy="306" fill="#4CAF50" r="0" stoke-width="1" stroke="#4CAF50" />
  <circle cx="876" cy="289" fill="#4CAF50" r="0" stoke-width="1" stroke="#4CAF50" />
  <circle cx="894" cy="270" fill="#4CAF50" r="0" stoke-width="1" stroke="#4CAF50" />
  <circle cx="913" cy="250" fill="#4CAF50" r="0" stoke-width="1" stroke="#4CAF50" />
  <circle cx="931" cy="229" fill="#4CAF50" r="0" stoke-width="1" stroke="#4CAF50" />
  <circle cx="950" cy="208" fill="#4CAF50" r="0" stoke-width="1" stroke="#4CAF50" />
  <polyline fill="none" points="50,587 68,582 86,577 105,573 123,568 141,564 160,559 178,554 196,550 215,545 233,541 252,536 270,532 288,527 307,522 325,518 343,513 362,509 380,504 398,499 417,495 435,490 454,486 472,481 490,477 509,472 527,467 545,463 564,458 582,454 601,449 619,444 637,440 656,435 674,431 692,426 711,422 729,417 747,412 766,408 784,403 803,399 821,394 839,389 858,385 876,380 894,376 913,371 931,367 950,362 " stroke="#FFC107" stroke-dasharray="20" stroke-width="1" />
  <circle cx="50" cy="587" fill="#FFC107" r="0" stoke-width="1" stroke="#FFC107" />
  <circle cx="68" cy="582" fill="#FFC107" r="0" stoke-width="1" stroke="#FFC107" />
  <circle cx="86" cy="577" fill="#FFC107" r="0" stoke-width="1" stroke="#FFC107" />
  <circle cx="105" cy="573" fill="#FFC107" r="0" stoke-width="1" stroke="#FFC107" />
  <circle cx="123" cy="568" fill="#FFC107" r="0" stoke-width="1" stroke="#FFC107" />
  <circle cx="141" cy="564" fill="#FFC107" r="0" stoke-width="1" stroke="#FFC107" />
  <circle cx="160" cy="559" fill="#FFC107" r="0" stoke-width="1" stroke="#FFC107" />
  <circle cx="178" cy="554" fill="#FFC107" r="0" stoke-width="1" stroke="#FFC107" />
  <circle cx="196" cy="550" fill="#FFC107" r="0" stoke-width="1" stroke="#FFC107" />
  <circle cx="215" cy="545" fill="#FFC107" r="0" stoke-width="1" stroke="#FFC107" />
  <circle cx="233" cy="541" fill="#FFC107" r="0" stoke-width="1" stroke="#FFC107" />
  <circle cx="252" cy="536" fill="#FFC107" r="0" stoke-width="1" stroke="#FFC107" />
  <circle cx="270" cy="532" fill="#FFC107" r="0" stoke-width="1" stroke="#FFC107" />
  <circle cx="288" cy="527" fill="#FFC107" r="0" stoke-width="1" stroke="#FFC107" />
  <circle cx="307" cy="522" fill="#FFC107" r="0" stoke-width="1" stroke="#FFC107" />
  <circle cx="325" cy="518" fill="#FFC107" r="0" stoke-width="1" stroke="#FFC107" />
  <circle cx="343" cy="513" fill="#FFC107" r="0" stoke-width="1" stroke="#FFC107" />
  <circle cx="362" cy="509" fill="#FFC107" r="0" stoke-width="1" stroke="#FFC107" />
  <circle cx="380" cy="504" fill="#FFC107" r="0" stoke-width="1" stroke="#FFC107" />
  <circle cx="398" cy="499" fill="#FFC107" r="0" stoke-width="1" stroke="#FFC107" />
  <circle cx="417" cy="495" fill="#FFC107" r="0" stoke-width="1" stroke="#FFC107" />
  <circle cx="435" cy="490" fill="#FFC107" r="0" stoke-width="1" stroke="#FFC107" />
  <circle cx="454" cy="486" fill="#FFC107" r="0" stoke-width="1" stroke="#FFC107" />
  <circle cx="472" cy="481" fill="#FFC107" r="0" stoke-width="1" stroke="#FFC107" />
  <circle cx="490" cy="477" fill="#FFC107" r="0" stoke-width="1" stroke="#FFC107" />
  <circle cx="509" cy="472" fill="#FFC107" r="0" stoke-width="1" stroke="#FFC107" />
  <circle cx="527" cy="467" fill="#FFC107" r="0" stoke-width="1" stroke="#FFC107" />
  <circle cx="545" cy="463" fill="#FFC107" r="0" stoke-width="1" stroke="#FFC107" />
  <circle cx="564" cy="458" fill="#FFC107" r="0" stoke-width="1" stroke="#FFC107" />
  <circle cx="582" cy="454" fill="#FFC107" r="0" stoke-width="1" stroke="#FFC107" />
  <circle cx="601" cy="449" fill="#FFC107" r="0" stoke-width="1" stroke="#FFC107" />
  <circle cx="619" cy="444" fill="#FFC107" r="0" stoke-width="1" stroke="#FFC107" />
  <circle cx="637" cy="440" fill="#FFC107" r="0" stoke-width="1" stroke="#FFC107" />
  <circle cx="656" cy="435" fill="#FFC107" r="0" stoke-width="1" stroke="#FFC107" />
  <circle cx="674" cy="431" fill="#FFC107" r="0" stoke-width="1" stroke="#FFC107" />
  <circle cx="692" cy="426" fill="#FFC107" r="0" stoke-width="1" stroke="#FFC107" />
  <circle cx="711" cy="422" fill="#FFC107" r="0" stoke-width="1" stroke="#FFC107" />
  <circle cx="729" cy="417" fill="#FFC107" r="0" stoke-width="1" stroke="#FFC107" />
  <circle cx="747" cy="412" fill="#FFC107" r="0" stoke-width="1" stroke="#FFC107" />
  <circle cx="766" cy="408" fill="#FFC107" r="0" stoke-width="1" stroke="#FFC107" />
  <circle cx="784" cy="403" fill="#FFC107" r="0" stoke-width="1" stroke="#FFC107" />
  <circle cx="803" cy="399" fill="#FFC107" r="0" stoke-width="1" stroke="#FFC107" />
  <circle cx="821" cy="394" fill="#FFC107" r="0" stoke-width="1" stroke="#FFC107" />
  <circle cx="839" cy="389" fill="#FFC107" r="0" stoke-width="1" stroke="#FFC107" />
  <circle cx="858" cy="385" fill="#FFC107" r="0" stoke-width="1" stroke="#FFC107" />
  <circle cx="876" cy="380" fill="#FFC107" r="0" stoke-width="1" stroke="#FFC107" />
  <circle cx="894" cy="376" fill="#FFC107" r="0" stoke-width="1" stroke="#FFC107" />
  <circle cx="913" cy="371" fill="#FFC107" r="0" stoke-width="1" stroke="#FFC107" />
  <circle cx="931" cy="367" fill="#FFC107" r="0" stoke-width="1" stroke="#FFC107" />
  <circle cx="950" cy="362" fill="#FFC107" r="0" stoke-width="1" stroke="#FFC107" />
</svg>