<svg width="1000" height="1000">
  <rect fill="white" height="1000" width="1000" x="0" y="0" />
  <line stroke="#000000" stroke-dasharray="0" stroke-width="2" x1="200" x2="220" y1="792" y2="773" />
  <line stroke="#000000" stroke-dasharray="0" stroke-width="2" x1="220" x2="200" y1="773" y2="776" />
  <line stroke="#000000" stroke-dasharray="0" stroke-width="2" x1="200" x2="200" y1="776" y2="792" />
  <line stroke="#000000" stroke-dasharray="0" stroke-width="2" x1="285" x2="242" y1="759" y2="792" />
  <line stroke="#000000" stroke-dasharray="0" stroke-width="2" x1="242" x2="285" y1="792" y2="792" />
  <line stroke="#000000" stroke-dasharray="0" stroke-width="2" x1="285" x2="285" y1="792" y2="759" />
  <line stroke="#000000" stroke-dasharray="0" stroke-width="2" x1="473" x2="534" y1="330" y2="274" />
  <line stroke="#000000" stroke-dasharray="0" stroke-width="2" x1="534" x2="462" y1="274" y2="269" />
  <line stroke="#000000" stroke-dasharray="0" stroke-width="2" x1="462" x2="473" y1="269" y2="330" />
  <line stroke="#000000" stroke-dasharray="0" stroke-width="2" x1="417" x2="474" y1="604" y2="604" />
  <line stroke="#000000" stroke-dasharray="0" stroke-width="2" x1="474" x2="474" y1="604" y2="570" />
  <line stroke="#000000" stroke-dasharray="0" stroke-width="2" x1="474" x2="417" y1="570" y2="604" />
  <line stroke="#000000" stroke-dasharray="0" stroke-width="2" x1="371" x2="371" y1="792" y2="776" />
  <line stroke="#000000" stroke-dasharray="0" stroke-width="2" x1="371" x2="334" y1="776" y2="771" />
  <line stroke="#000000" stroke-dasharray="0" stroke-width="2" x1="334" x2="371" y1="771" y2="792" />
  <line stroke="#000000" stroke-dasharray="0" stroke-width="2" x1="621" x2="606" y1="771" y2="792" />
  <line stroke="#000000" stroke-dasharray="0" stroke-width="2" x1="606" x2="634" y1="792" y2="792" />
  <line stroke="#000000" stroke-dasharray="0" stroke-width="2" x1="634" x2="621" y1="792" y2="771" />
  <line stroke="#000000" stroke-dasharray="0" stroke-width="2" x1="436" x2="448" y1="331" y2="390" />
  <line stroke="#000000" stroke-dasharray="0" stroke-width="2" x1="448" x2="473" y1="390" y2="330" />
  <line stroke="#000000" stroke-dasharray="0" stroke-width="2" x1="473" x2="436" y1="330" y2="331" />
  <line stroke="#000000" stroke-dasharray="0" stroke-width="2" x1="318" x2="312" y1="761" y2="739" />
  <line stroke="#000000" stroke-dasharray="0" stroke-width="2" x1="312" x2="285" y1="739" y2="759" />
  <line stroke="#000000" stroke-dasharray="0" stroke-width="2" x1="285" x2="318" y1="759" y2="761" />
  <line stroke="#000000" stroke-dasharray="0" stroke-width="2" x1="285" x2="334" y1="792" y2="771" />
  <line stroke="#000000" stroke-dasharray="0" stroke-width="2" x1="334" x2="318" y1="771" y2="761" />
  <line stroke="#000000" stroke-dasharray="0" stroke-width="2" x1="318" x2="285" y1="761" y2="792" />
  <line stroke="#000000" stroke-dasharray="0" stroke-width="2" x1="285" x2="371" y1="792" y2="792" />
  <line stroke="#000000" stroke-dasharray="0" stroke-width="2" x1="374" x2="360" y1="570" y2="604" />
  <line stroke="#000000" stroke-dasharray="0" stroke-width="2" x1="360" x2="417" y1="604" y2="604" />
  <line stroke="#000000" stroke-dasharray="0" stroke-width="2" x1="417" x2="374" y1="604" y2="570" />
  <line stroke="#000000" stroke-dasharray="0" stroke-width="2" x1="245" x2="220" y1="756" y2="773" />
  <line stroke="#000000" stroke-dasharray="0" stroke-width="2" x1="220" x2="242" y1="773" y2="792" />
  <line stroke="#000000" stroke-dasharray="0" stroke-width="2" x1="242" x2="245" y1="792" y2="756" />
  <line stroke="#000000" stroke-dasharray="0" stroke-width="2" x1="285" x2="277" y1="759" y2="702" />
  <line stroke="#000000" stroke-dasharray="0" stroke-width="2" x1="277" x2="245" y1="702" y2="756" />
  <line stroke="#000000" stroke-dasharray="0" stroke-width="2" x1="245" x2="285" y1="756" y2="759" />
  <line stroke="#000000" stroke-dasharray="0" stroke-width="2" x1="277" x2="312" y1="702" y2="739" />
  <line stroke="#000000" stroke-dasharray="0" stroke-width="2" x1="312" x2="319" y1="739" y2="706" />
  <line stroke="#000000" stroke-dasharray="0" stroke-width="2" x1="319" x2="277" y1="706" y2="702" />
  <line stroke="#000000" stroke-dasharray="0" stroke-width="2" x1="319" x2="304" y1="706" y2="640" />
  <line stroke="#000000" stroke-dasharray="0" stroke-width="2" x1="304" x2="277" y1="640" y2="702" />
  <line stroke="#000000" stroke-dasharray="0" stroke-width="2" x1="374" x2="330" y1="570" y2="578" />
  <line stroke="#000000" stroke-dasharray="0" stroke-width="2" x1="330" x2="360" y1="578" y2="604" />
  <line stroke="#000000" stroke-dasharray="0" stroke-width="2" x1="620" x2="681" y1="684" y2="606" />
  <line stroke="#000000" stroke-dasharray="0" stroke-width="2" x1="681" x2="587" y1="606" y2="604" />
  <line stroke="#000000" stroke-dasharray="0" stroke-width="2" x1="587" x2="620" y1="604" y2="684" />
  <line stroke="#000000" stroke-dasharray="0" stroke-width="2" x1="399" x2="330" y1="510" y2="578" />
  <line stroke="#000000" stroke-dasharray="0" stroke-width="2" x1="374" x2="399" y1="570" y2="510" />
  <line stroke="#000000" stroke-dasharray="0" stroke-width="2" x1="530" x2="587" y1="604" y2="604" />
  <line stroke="#000000" stroke-dasharray="0" stroke-width="2" x1="587" x2="574" y1="604" y2="570" />
  <line stroke="#000000" stroke-dasharray="0" stroke-width="2" x1="574" x2="530" y1="570" y2="604" />
  <line stroke="#000000" stroke-dasharray="0" stroke-width="2" x1="319" x2="360" y1="706" y2="604" />
  <line stroke="#000000" stroke-dasharray="0" stroke-width="2" x1="360" x2="304" y1="604" y2="640" />
  <line stroke="#000000" stroke-dasharray="0" stroke-width="2" x1="688" x2="669" y1="701" y2="763" />
  <line stroke="#000000" stroke-dasharray="0" stroke-width="2" x1="669" x2="740" y1="763" y2="739" />
  <line stroke="#000000" stroke-dasharray="0" stroke-width="2" x1="740" x2="688" y1="739" y2="701" />
  <line stroke="#000000" stroke-dasharray="0" stroke-width="2" x1="200" x2="242" y1="792" y2="792" />
  <line stroke="#000000" stroke-dasharray="0" stroke-width="2" x1="448" x2="383" y1="390" y2="454" />
  <line stroke="#000000" stroke-dasharray="0" stroke-width="2" x1="383" x2="424" y1="454" y2="450" />
  <line stroke="#000000" stroke-dasharray="0" stroke-width="2" x1="424" x2="448" y1="450" y2="390" />
  <line stroke="#000000" stroke-dasharray="0" stroke-width="2" x1="606" x2="579" y1="792" y2="776" />
  <line stroke="#000000" stroke-dasharray="0" stroke-width="2" x1="579" x2="579" y1="776" y2="792" />
  <line stroke="#000000" stroke-dasharray="0" stroke-width="2" x1="579" x2="606" y1="792" y2="792" />
  <line stroke="#000000" stroke-dasharray="0" stroke-width="2" x1="744" x2="800" y1="792" y2="792" />
  <line stroke="#000000" stroke-dasharray="0" stroke-width="2" x1="800" x2="774" y1="792" y2="772" />
  <line stroke="#000000" stroke-dasharray="0" stroke-width="2" x1="774" x2="744" y1="772" y2="792" />
  <line stroke="#000000" stroke-dasharray="0" stroke-width="2" x1="383" x2="399" y1="454" y2="510" />
  <line stroke="#000000" stroke-dasharray="0" stroke-width="2" x1="399" x2="424" y1="510" y2="450" />
  <line stroke="#000000" stroke-dasharray="0" stroke-width="2" x1="473" x2="622" y1="330" y2="473" />
  <line stroke="#000000" stroke-dasharray="0" stroke-width="2" x1="622" x2="563" y1="473" y2="340" />
  <line stroke="#000000" stroke-dasharray="0" stroke-width="2" x1="563" x2="473" y1="340" y2="330" />
  <line stroke="#000000" stroke-dasharray="0" stroke-width="2" x1="800" x2="800" y1="792" y2="776" />
  <line stroke="#000000" stroke-dasharray="0" stroke-width="2" x1="800" x2="774" y1="776" y2="772" />
  <line stroke="#000000" stroke-dasharray="0" stroke-width="2" x1="652" x2="622" y1="540" y2="473" />
  <line stroke="#000000" stroke-dasharray="0" stroke-width="2" x1="622" x2="574" y1="473" y2="570" />
  <line stroke="#000000" stroke-dasharray="0" stroke-width="2" x1="574" x2="652" y1="570" y2="540" />
  <line stroke="#000000" stroke-dasharray="0" stroke-width="2" x1="740" x2="689" y1="739" y2="792" />
  <line stroke="#000000" stroke-dasharray="0" stroke-width="2" x1="689" x2="744" y1="792" y2="792" />
  <line stroke="#000000" stroke-dasharray="0" stroke-width="2" x1="744" x2="740" y1="792" y2="739" />
  <line stroke="#000000" stroke-dasharray="0" stroke-width="2" x1="634" x2="633" y1="792" y2="762" />
  <line stroke="#000000" stroke-dasharray="0" stroke-width="2" x1="633" x2="621" y1="762" y2="771" />
  <line stroke="#000000" stroke-dasharray="0" stroke-width="2" x1="756" x2="744" y1="761" y2="792" />
  <line stroke="#000000" stroke-dasharray="0" stroke-width="2" x1="774" x2="756" y1="772" y2="761" />
  <line stroke="#000000" stroke-dasharray="0" stroke-width="2" x1="756" x2="740" y1="761" y2="739" />
  <line stroke="#000000" stroke-dasharray="0" stroke-width="2" x1="587" x2="652" y1="604" y2="540" />
  <line stroke="#000000" stroke-dasharray="0" stroke-width="2" x1="689" x2="669" y1="792" y2="763" />
  <line stroke="#000000" stroke-dasharray="0" stroke-width="2" x1="669" x2="634" y1="763" y2="792" />
  <line stroke="#000000" stroke-dasharray="0" stroke-width="2" x1="634" x2="689" y1="792" y2="792" />
  <line stroke="#000000" stroke-dasharray="0" stroke-width="2" x1="563" x2="534" y1="340" y2="274" />
  <line stroke="#000000" stroke-dasharray="0" stroke-width="2" x1="474" x2="374" y1="570" y2="570" />
  <line stroke="#000000" stroke-dasharray="0" stroke-width="2" x1="740" x2="681" y1="739" y2="606" />
  <line stroke="#000000" stroke-dasharray="0" stroke-width="2" x1="681" x2="688" y1="606" y2="701" />
  <line stroke="#000000" stroke-dasharray="0" stroke-width="2" x1="462" x2="436" y1="269" y2="331" />
  <line stroke="#000000" stroke-dasharray="0" stroke-width="2" x1="681" x2="652" y1="606" y2="540" />
  <line stroke="#000000" stroke-dasharray="0" stroke-width="2" x1="473" x2="574" y1="330" y2="570" />
  <line stroke="#000000" stroke-dasharray="0" stroke-width="2" x1="669" x2="633" y1="763" y2="762" />
  <line stroke="#000000" stroke-dasharray="0" stroke-width="2" x1="669" x2="639" y1="763" y2="744" />
  <line stroke="#000000" stroke-dasharray="0" stroke-width="2" x1="639" x2="633" y1="744" y2="762" />
  <line stroke="#000000" stroke-dasharray="0" stroke-width="2" x1="688" x2="620" y1="701" y2="684" />
  <line stroke="#000000" stroke-dasharray="0" stroke-width="2" x1="620" x2="639" y1="684" y2="744" />
  <line stroke="#000000" stroke-dasharray="0" stroke-width="2" x1="639" x2="688" y1="744" y2="701" />
  <line stroke="#000000" stroke-dasharray="0" stroke-width="2" x1="621" x2="579" y1="771" y2="776" />
  <line stroke="#000000" stroke-dasharray="0" stroke-width="2" x1="496" x2="488" y1="247" y2="207" />
  <line stroke="#000000" stroke-dasharray="0" stroke-width="2" x1="488" x2="462" y1="207" y2="269" />
  <line stroke="#000000" stroke-dasharray="0" stroke-width="2" x1="462" x2="496" y1="269" y2="247" />
  <line stroke="#000000" stroke-dasharray="0" stroke-width="2" x1="534" x2="496" y1="274" y2="247" />
  <line stroke="#000000" stroke-dasharray="0" stroke-width="2" x1="474" x2="530" y1="570" y2="604" />
  <line stroke="#000000" stroke-dasharray="0" stroke-width="2" x1="574" x2="474" y1="570" y2="570" />
  <line stroke="#000000" stroke-dasharray="0" stroke-width="2" x1="474" x2="530" y1="604" y2="604" />
  <line stroke="#000000" stroke-dasharray="0" stroke-width="2" x1="436" x2="383" y1="331" y2="454" />
  <line stroke="#000000" stroke-dasharray="0" stroke-width="2" x1="330" x2="304" y1="578" y2="640" />
  <line stroke="#000000" stroke-dasharray="0" stroke-width="2" x1="383" x2="330" y1="454" y2="578" />
  <line stroke="#000000" stroke-dasharray="0" stroke-width="2" x1="504" x2="488" y1="207" y2="207" />
  <line stroke="#000000" stroke-dasharray="0" stroke-width="2" x1="496" x2="504" y1="247" y2="207" />
  <line stroke="#000000" stroke-dasharray="0" stroke-width="2" x1="534" x2="504" y1="274" y2="207" />
  <circle cx="200" cy="776" fill="#000000" r="1" stoke-width="1" stroke="#000000" />
  <circle cx="220" cy="773" fill="#000000" r="1" stoke-width="1" stroke="#000000" />
  <circle cx="245" cy="756" fill="#000000" r="1" stoke-width="1" stroke="#000000" />
  <circle cx="277" cy="702" fill="#000000" r="1" stoke-width="1" stroke="#000000" />
  <circle cx="488" cy="207" fill="#000000" r="1" stoke-width="1" stroke="#000000" />
  <circle cx="504" cy="207" fill="#000000" r="1" stoke-width="1" stroke="#000000" />
  <circle cx="740" cy="739" fill="#000000" r="1" stoke-width="1" stroke="#000000" />
  <circle cx="756" cy="761" fill="#000000" r="1" stoke-width="1" stroke="#000000" />
  <circle cx="774" cy="772" fill="#000000" r="1" stoke-width="1" stroke="#000000" />
  <circle cx="800" cy="776" fill="#000000" r="1" stoke-width="1" stroke="#000000" />
  <circle cx="800" cy="792" fill="#000000" r="1" stoke-width="1" stroke="#000000" />
  <circle cx="579" cy="792" fill="#000000" r="1" stoke-width="1" stroke="#000000" />
  <circle cx="579" cy="776" fill="#000000" r="1" stoke-width="1" stroke="#000000" />
  <circle cx="621" cy="771" fill="#000000" r="1" stoke-width="1" stroke="#000000" />
  <circle cx="633" cy="762" fill="#000000" r="1" stoke-width="1" stroke="#000000" />
  <circle cx="639" cy="744" fill="#000000" r="1" stoke-width="1" stroke="#000000" />
  <circle cx="620" cy="684" fill="#000000" r="1" stoke-width="1" stroke="#000000" />
  <circle cx="587" cy="604" fill="#000000" r="1" stoke-width="1" stroke="#000000" />
  <circle cx="360" cy="604" fill="#000000" r="1" stoke-width="1" stroke="#000000" />
  <circle cx="319" cy="706" fill="#000000" r="1" stoke-width="1" stroke="#000000" />
  <circle cx="312" cy="739" fill="#000000" r="1" stoke-width="1" stroke="#000000" />
  <circle cx="318" cy="761" fill="#000000" r="1" stoke-width="1" stroke="#000000" />
  <circle cx="334" cy="771" fill="#000000" r="1" stoke-width="1" stroke="#000000" />
  <circle cx="371" cy="776" fill="#000000" r="1" stoke-width="1" stroke="#000000" />
  <circle cx="371" cy="792" fill="#000000" r="1" stoke-width="1" stroke="#000000" />
  <circle cx="374" cy="570" fill="#000000" r="1" stoke-width="1" stroke="#000000" />
  <circle cx="574" cy="570" fill="#000000" r="1" stoke-width="1" stroke="#000000" />
  <circle cx="473" cy="330" fill="#000000" r="1" stoke-width="1" stroke="#000000" />
  <circle cx="200" cy="792" fill="#000000" r="1" stoke-width="1" stroke="#000000" />
  <circle cx="383" cy="454" fill="#000000" r="1" stoke-width="1" stroke="#000000" />
  <circle cx="622" cy="473" fill="#000000" r="1" stoke-width="1" stroke="#000000" />
  <circle cx="689" cy="792" fill="#000000" r="1" stoke-width="1" stroke="#000000" />
  <circle cx="285" cy="792" fill="#000000" r="1" stoke-width="1" stroke="#000000" />
  <circle cx="424" cy="450" fill="#000000" r="1" stoke-width="1" stroke="#000000" />
  <circle cx="330" cy="578" fill="#000000" r="1" stoke-width="1" stroke="#000000" />
  <circle cx="436" cy="331" fill="#000000" r="1" stoke-width="1" stroke="#000000" />
  <circle cx="634" cy="792" fill="#000000" r="1" stoke-width="1" stroke="#000000" />
  <circle cx="606" cy="792" fill="#000000" r="1" stoke-width="1" stroke="#000000" />
  <circle cx="563" cy="340" fill="#000000" r="1" stoke-width="1" stroke="#000000" />
  <circle cx="462" cy="269" fill="#000000" r="1" stoke-width="1" stroke="#000000" />
  <circle cx="744" cy="792" fill="#000000" r="1" stoke-width="1" stroke="#000000" />
  <circle cx="669" cy="763" fill="#000000" r="1" stoke-width="1" stroke="#000000" />
  <circle cx="285" cy="759" fill="#000000" r="1" stoke-width="1" stroke="#000000" />
  <circle cx="242" cy="792" fill="#000000" r="1" stoke-width="1" stroke="#000000" />
  <circle cx="681" cy="606" fill="#000000" r="1" stoke-width="1" stroke="#000000" />
  <circle cx="474" cy="604" fill="#000000" r="1" stoke-width="1" stroke="#000000" />
  <circle cx="474" cy="570" fill="#000000" r="1" stoke-width="1" stroke="#000000" />
  <circle cx="688" cy="701" fill="#000000" r="1" stoke-width="1" stroke="#000000" />
  <circle cx="652" cy="540" fill="#000000" r="1" stoke-width="1" stroke="#000000" />
  <circle cx="530" cy="604" fill="#000000" r="1" stoke-width="1" stroke="#000000" />
  <circle cx="417" cy="604" fill="#000000" r="1" stoke-width="1" stroke="#000000" />
  <circle cx="448" cy="390" fill="#000000" r="1" stoke-width="1" stroke="#000000" />
  <circle cx="304" cy="640" fill="#000000" r="1" stoke-width="1" stroke="#000000" />
  <circle cx="399" cy="510" fill="#000000" r="1" stoke-width="1" stroke="#000000" />
  <circle cx="534" cy="274" fill="#000000" r="1" stoke-width="1" stroke="#000000" />
  <circle cx="496" cy="247" fill="#000000" r="1" stoke-width="1" stroke="#000000" />
</svg>